<svg width="256" height="256" viewBox="0 0 256 256" fill="none" xmlns="http://www.w3.org/2000/svg">
  <rect width="256" height="256" rx="56" fill="#07111F"/>
  <path d="M182 63C167.333 54.3333 150.167 50 130.5 50C110.833 50 94.5 54.5 81.5 63.5C68.8333 72.1667 62.5 84 62.5 99C62.5 111 66.1667 120.5 73.5 127.5C80.8333 134.167 92.6667 139.833 109 144.5L138.5 152C146.167 154 151.667 156.167 155 158.5C158.333 160.5 160 164 160 169C160 175.333 156.833 180.167 150.5 183.5C144.5 186.833 136.167 188.5 125.5 188.5C115.167 188.5 105 186.833 95 183.5C84.6667 179.833 75.3333 174.667 67 168L50 197.5C60 205.833 71.8333 212.167 85.5 216.5C99.1667 220.833 112.833 223 126.5 223C146.833 223 163.5 218.667 176.5 210C189.833 201 196.5 188.333 196.5 172C196.5 159.333 192.833 149.333 185.5 142C178.5 134.667 166.833 128.833 150.5 124.5L121.5 117C113.833 115 108.167 112.833 104.5 110.5C101.167 108.167 99.5 104.667 99.5 100C99.5 94.3333 102.333 89.8333 108 86.5C113.667 83.1667 121.833 81.5 132.5 81.5C140.833 81.5 149.333 82.8333 158 85.5C166.667 88.1667 174.833 92 182.5 97L202 68C195.667 66 189 64.3333 182 63Z" fill="white"/>
  <path d="M93 53H164L179 68H78L93 53Z" fill="#1E5EFF"/>
  <path d="M73 188L89 203H167L183 188H73Z" fill="#1E5EFF"/>
</svg>
